<?xml version="1.0" encoding="UTF-8"?>
<svg version="1.1" xmlns="http://www.w3.org/2000/svg" width="1180" height="350">
<path d="M0 0 C7.52092589 5.87999661 12.28295737 15.14105332 17.22137451 23.1940155 C20.6113759 28.71234083 24.16386887 34.10777288 27.7734375 39.484375 C32.78219098 46.97153156 37.76823353 54.47286685 42.72265625 61.99609375 C43.33107864 62.91985306 43.93950104 63.84361237 44.56636047 64.79536438 C46.41577884 67.60416919 48.26461079 70.41335914 50.11328125 73.22265625 C60.73634978 89.36764874 60.73634978 89.36764874 71.43475342 105.46273804 C75.18822766 111.0809276 78.93500442 116.7035833 82.68261719 122.32568359 C83.43016222 123.44707969 84.17771062 124.56847355 84.92526245 125.68986511 C86.73796836 128.40910684 88.55064043 131.12837113 90.36328125 133.84765625 C90.36474781 133.23327257 90.36621437 132.61888889 90.36772537 131.98588753 C90.40485646 117.00259224 90.46395414 102.01955602 90.54718399 87.03645515 C90.58691034 79.79057595 90.61933518 72.54480433 90.63427734 65.29882812 C90.64732727 58.97960463 90.6743764 52.66061853 90.71789432 46.34152877 C90.74043525 42.99876306 90.75410758 39.65654639 90.7551651 36.31366348 C90.75753855 32.57219364 90.7846517 28.83164285 90.81738281 25.09033203 C90.80983727 23.44710213 90.80983727 23.44710213 90.80213928 21.77067566 C90.90114265 14.42797961 91.80647873 6.89464085 96.84576797 1.16086006 C102.0338651 -3.35637096 106.75472268 -3.49729359 113.34765625 -3.43359375 C118.80377966 -2.9247325 121.80527724 -0.71034776 125.67578125 3.16015625 C129.03269959 8.50635953 129.61403123 13.9378199 129.63070679 20.14520264 C129.6352379 20.84579339 129.63976901 21.54638415 129.64443743 22.26820493 C129.65702004 24.59781712 129.65546508 26.92719369 129.65380859 29.25683594 C129.65979774 30.93458352 129.66660418 32.61232834 129.67416382 34.29006958 C129.69179298 38.83571804 129.69651793 43.38129114 129.69779539 47.92697048 C129.69921944 50.77091436 129.70349388 53.61483923 129.70878983 56.45877838 C129.72728081 66.39180207 129.73546172 76.32477217 129.73388672 86.2578125 C129.73268599 95.498099 129.75377724 104.73815166 129.78537405 113.97837901 C129.81157928 121.92683274 129.82225222 129.8752103 129.8209759 137.82370687 C129.82046746 142.56418286 129.82608501 147.30445099 129.847332 152.04488373 C129.86678578 156.50687813 129.86679037 160.96846794 129.85229874 165.43047714 C129.85021828 167.06100179 129.85486571 168.69155225 129.86701965 170.32203293 C130.00591497 190.25859388 130.00591497 190.25859388 123.9513607 197.54740524 C117.78145493 203.05878342 111.08347279 203.46305359 103.15625 203.2109375 C93.89220738 202.32365021 88.78935694 197.66973973 82.83447266 190.90722656 C78.17356718 185.13658168 74.23831896 178.89789701 70.23828125 172.66015625 C69.31187951 171.23000283 68.38462203 169.8004034 67.45654297 168.37133789 C65.6078632 165.52221106 63.76370505 162.67024876 61.92382812 159.81542969 C59.06794472 155.38576095 56.1874043 150.97257807 53.30322266 146.5612793 C51.50003996 143.8031423 49.70057106 141.04261987 47.90234375 138.28125 C44.22522268 132.63504386 40.54441989 126.99124361 36.86328125 121.34765625 C35.61587547 119.43490232 34.36847963 117.52214191 33.12109375 115.609375 C30.59546924 111.73670688 28.0693804 107.86434216 25.54296875 103.9921875 C24.58680664 102.52652344 24.58680664 102.52652344 23.61132812 101.03125 C22.43307753 99.22517245 21.25470926 97.41917167 20.07617188 95.61328125 C15.91460404 89.23381425 11.76252188 82.84820834 7.61181641 76.46166992 C7.00992996 75.53562706 6.40804352 74.6095842 5.78791809 73.65547943 C4.31300966 71.3862242 2.83813151 69.11694929 1.36328125 66.84765625 C1.36181469 67.46903725 1.36034813 68.09041824 1.35883713 68.73062897 C1.3217356 83.87178031 1.26267684 99.01267464 1.17937851 114.15363312 C1.13962128 121.47579806 1.10721205 128.79785605 1.09228516 136.12011719 C1.07925132 142.50451018 1.05224288 148.88866751 1.00866818 155.27292776 C0.98609182 158.65132562 0.97036824 162.02943323 0.9713974 165.40791321 C0.96903007 169.18571235 0.94196611 172.96259357 0.90917969 176.74023438 C0.91672523 178.40827621 0.91672523 178.40827621 0.92442322 180.11001587 C0.82920366 187.2108513 -0.06420091 193.10274748 -5.11920547 198.40167999 C-10.42520882 203.04767238 -14.92243402 203.14014763 -21.69140625 203.05859375 C-27.08229876 202.67250861 -29.67742838 200.82874867 -33.38671875 197.03515625 C-37.15234229 191.7005229 -37.88683256 187.10667246 -37.89741516 180.650177 C-37.90124071 179.94832397 -37.90506626 179.24647094 -37.90900773 178.52334964 C-37.91928413 176.18362061 -37.91535586 173.84413945 -37.91137695 171.50439453 C-37.91572642 169.82192763 -37.92091035 168.13946272 -37.92686462 166.45700073 C-37.94024115 161.89495853 -37.94083475 157.33299925 -37.93830132 152.77094126 C-37.93723062 148.95889397 -37.94211757 145.14686338 -37.94690675 141.33481967 C-37.95799745 132.33924855 -37.9584419 123.34371918 -37.95239258 114.34814453 C-37.94635341 105.07661559 -37.95866336 95.80523844 -37.97996265 86.53373539 C-37.99759231 78.56581727 -38.00357782 70.59794739 -38.0003249 62.63001049 C-37.99851396 57.87456629 -38.00112934 53.11923035 -38.01503944 48.36380386 C-38.02763524 43.89039125 -38.02565713 39.41721478 -38.01262856 34.94380569 C-38.01026698 33.30557678 -38.01298243 31.66733115 -38.02125168 30.0291214 C-38.07071927 19.4642302 -37.99053906 10.50144173 -30.41796875 2.390625 C-21.88471678 -5.00111739 -9.66927881 -5.53631753 0 0 Z " fill="#000000" transform="translate(380.63671875,14.15234375)"/>
<path d="M0 0 C4.99290448 3.7751229 8.59430847 7.94697498 10.5625 13.9375 C10.76636404 16.51770379 10.87340943 18.99367268 10.88134766 21.57348633 C10.89139328 22.32524139 10.9014389 23.07699646 10.91178894 23.85153198 C10.94255859 26.32419098 10.95963858 28.796742 10.9765625 31.26953125 C10.99527917 32.98875351 11.01485296 34.70796663 11.0352478 36.4271698 C11.08652234 40.94309089 11.12617307 45.45904176 11.16339111 49.97509766 C11.20346011 54.58698868 11.25453924 59.19875638 11.3046875 63.81054688 C11.40139138 72.85277789 11.48581387 81.89507861 11.5625 90.9375 C11.95027115 90.51943588 12.3380423 90.10137177 12.73756409 89.67063904 C14.53331041 87.73618256 16.33109717 85.80363326 18.12890625 83.87109375 C19.04331482 82.88514221 19.04331482 82.88514221 19.97619629 81.87927246 C25.02504253 76.45656124 30.23418381 71.21814484 35.52734375 66.03515625 C37.77423373 63.79413473 39.87015995 61.46264568 41.94140625 59.05859375 C46.23931321 54.08937889 50.91409815 49.53516619 55.6015625 44.9375 C58.86915302 41.70775802 62.03402333 38.45238375 65.03125 34.96875 C69.48810605 29.79435023 74.3769639 25.07499431 79.24609375 20.29296875 C82.7416699 16.83531929 86.12336128 13.35183996 89.328125 9.62109375 C91.64725117 6.92716601 93.90926429 4.58301261 96.8125 2.5 C97.77929688 1.79037109 97.77929688 1.79037109 98.765625 1.06640625 C104.05149345 -2.25449806 110.56708161 -1.45479281 116.5625 -1.0625 C122.01905175 0.62407054 125.35191766 4.3360139 128.5625 8.9375 C129.49640539 11.73921617 129.78794576 13.70639207 129.875 16.625 C129.93107422 17.83736328 129.93107422 17.83736328 129.98828125 19.07421875 C128.62230639 28.26008638 122.18648433 33.83507492 115.8125 40 C114.94367188 40.85916016 114.07484375 41.71832031 113.1796875 42.60351562 C108.68606531 47.01954524 104.10011679 51.27339672 99.32714844 55.38452148 C96.78099467 57.62526361 94.43236177 60.01053312 92.0625 62.4375 C88.27787817 66.28000273 84.39081338 69.93106985 80.2890625 73.43359375 C77.92535001 75.49248359 75.74400266 77.68782538 73.5625 79.9375 C74.80195073 83.28612761 76.18708325 86.08697476 78.2578125 88.9921875 C78.80050781 89.75982422 79.34320313 90.52746094 79.90234375 91.31835938 C80.49144531 92.14142578 81.08054687 92.96449219 81.6875 93.8125 C82.96140035 95.61165153 84.23481906 97.41114417 85.5078125 99.2109375 C86.17329102 100.14905273 86.83876953 101.08716797 87.52441406 102.05371094 C90.89893952 106.82849468 94.22919537 111.63389395 97.5625 116.4375 C101.99536114 122.81828668 106.43784399 129.19192152 110.90454102 135.54907227 C113.19516971 138.81225113 115.47771642 142.08101744 117.7578125 145.3515625 C119.01844302 147.15792052 120.28167435 148.96246502 121.546875 150.765625 C123.58206806 153.67082425 125.60464872 156.5844655 127.625 159.5 C128.2444751 160.37986572 128.8639502 161.25973145 129.50219727 162.16625977 C136.45111031 172.2513658 141.39148941 181.40553555 139.5625 193.9375 C137.42776742 198.44415768 134.64427871 201.1116532 130.5625 203.9375 C123.44300409 206.3106653 114.03486883 206.10636085 107.125 203.125 C97.97828259 197.50515608 92.66842896 186.12678937 87.1875 177.1875 C82.65385011 169.8633085 78.08044546 162.5879072 73.26342773 155.44702148 C69.87090719 150.41639617 66.55217989 145.3403516 63.25 140.25 C62.71141357 139.41984375 62.17282715 138.5896875 61.61791992 137.734375 C60.50938272 136.02504509 59.40106922 134.31557009 58.29296875 132.60595703 C55.28262854 127.96388332 52.26592552 123.32594605 49.25 118.6875 C48.14971223 116.99480945 47.04944919 115.30210282 45.94921875 113.609375 C45.48733154 112.8987793 45.02544434 112.18818359 44.54956055 111.45605469 C44.22383057 110.95493164 43.89810059 110.45380859 43.5625 109.9375 C39.09014607 113.73247641 34.68621922 117.58544136 30.375 121.5625 C29.88708984 122.00722656 29.39917969 122.45195312 28.89648438 122.91015625 C27.79565558 123.924403 26.71675803 124.96271599 25.65478516 126.01757812 C23.5625 127.9375 23.5625 127.9375 20.49755859 130.12304688 C16.01491474 133.5491724 12.29838265 136.90908834 10.92593384 142.55718994 C10.00313165 150.0779053 10.31345537 157.63206817 10.5625 165.1875 C10.6315194 168.59117017 10.68311522 171.99390154 10.71386719 175.39813232 C10.73733847 177.50440253 10.78480874 179.61059128 10.86035156 181.71563721 C11.00583891 189.07430697 9.67707687 194.40764621 4.74609375 199.99609375 C4.16988281 200.45113281 3.59367187 200.90617188 3 201.375 C2.42121094 201.84808594 1.84242187 202.32117188 1.24609375 202.80859375 C-3.84388861 206.22159816 -10.60000849 205.55160963 -16.4375 204.9375 C-21.72944959 202.93850337 -25.30448134 199.61321052 -28.4375 194.9375 C-28.82268092 192.26867339 -28.97931924 190.01597502 -28.94543457 187.35328674 C-28.95167453 186.59779083 -28.9579145 185.84229491 -28.96434355 185.06390518 C-28.9802775 182.53650644 -28.96766822 180.01007163 -28.95507812 177.48266602 C-28.96049913 175.66902097 -28.96762167 173.85538034 -28.97631836 172.04174805 C-28.99455853 167.11813481 -28.98748095 162.19485673 -28.97480202 157.27123761 C-28.96467643 152.11839216 -28.97406662 146.96557545 -28.98034668 141.81272888 C-28.98762502 133.15822192 -28.97803115 124.50385147 -28.95898438 115.84936523 C-28.93722218 105.84556523 -28.94426155 95.84209141 -28.96629 85.83829933 C-28.98444686 77.24876317 -28.9870007 68.65932516 -28.97653532 60.069776 C-28.9703011 54.93989621 -28.96946271 49.81016968 -28.98268127 44.68029976 C-28.99424303 39.85636012 -28.986208 35.03284053 -28.96310425 30.20894623 C-28.95781861 28.43926885 -28.95932846 26.66955607 -28.96815491 24.89989281 C-28.97910025 22.48235156 -28.96536022 20.06615281 -28.94543457 17.6486969 C-28.95435746 16.94975911 -28.96328034 16.25082132 -28.97247362 15.5307036 C-28.89317977 10.56454383 -27.51048417 7.78171672 -24.4375 3.9375 C-17.58820282 -2.24357306 -8.70169294 -2.68961418 0 0 Z " fill="#000000" transform="translate(28.4375,12.0625)"/>
<path d="M0 0 C1.1392392 -0.00511093 2.27847839 -0.01022186 3.45223999 -0.01548767 C7.201287 -0.02933716 10.95014927 -0.02843061 14.69921875 -0.02612305 C17.31420967 -0.03001199 19.92919997 -0.03434707 22.54418945 -0.03910828 C28.01808297 -0.04730235 33.49192481 -0.04642537 38.96582031 -0.04101562 C45.27794469 -0.03497312 51.58984632 -0.04730066 57.90193272 -0.06858569 C63.99522403 -0.08837114 70.08841166 -0.09137029 76.18173218 -0.08785057 C78.76525394 -0.08836328 81.34877931 -0.09359152 83.93228149 -0.10366249 C87.54617405 -0.11602375 91.15955292 -0.10923686 94.7734375 -0.09765625 C95.83549408 -0.10529999 96.89755066 -0.11294373 97.99179077 -0.12081909 C105.52592708 -0.06756256 111.39489156 0.7284223 117.32421875 5.7746582 C120.88342072 10.08884241 120.72162235 14.16436893 120.671875 19.54418945 C120.17312957 24.31984779 117.83223799 26.96465639 114.38671875 30.0871582 C111.09577499 32.04115606 108.00473922 32.39981108 104.22320557 32.39491272 C102.99069817 32.39697472 102.99069817 32.39697472 101.73329163 32.39907837 C100.84065109 32.39548309 99.94801056 32.39188782 99.02832031 32.38818359 C97.60829964 32.38840263 97.60829964 32.38840263 96.15959167 32.3886261 C93.03215235 32.38792973 89.90477267 32.38015019 86.77734375 32.37231445 C84.60829704 32.3704493 82.43924992 32.36902585 80.27020264 32.36802673 C74.56230506 32.36420926 68.85443293 32.35438552 63.14654541 32.34332275 C56.29746527 32.33129324 49.44837662 32.32670273 42.59928894 32.32086945 C32.19508117 32.31117338 21.79092926 32.29201141 11.38671875 32.2746582 C11.38671875 48.1146582 11.38671875 63.9546582 11.38671875 80.2746582 C20.88453125 80.20504883 20.88453125 80.20504883 30.57421875 80.1340332 C34.59376647 80.11358681 38.61324976 80.09433046 42.6328125 80.0793457 C49.0081113 80.05546596 55.38317955 80.02726407 61.75830078 79.97290039 C66.90006024 79.92933026 72.04157233 79.90549735 77.1835022 79.89514923 C79.14185477 79.88777791 81.10019434 79.87338344 83.05844116 79.85173798 C85.80878595 79.82255553 88.5581182 79.81870838 91.30859375 79.82055664 C92.11204727 79.80617554 92.91550079 79.79179443 93.74330139 79.77697754 C100.66139143 79.82703986 105.96254249 81.85048195 110.88671875 86.7746582 C113.06491033 91.85710522 113.20134493 96.82180005 112.38671875 102.2746582 C110.6698997 106.40363877 108.33512375 108.29889818 104.44096184 110.43726349 C100.76346874 111.93636226 97.16028073 111.79706028 93.23852539 111.72875977 C91.90562973 111.72963593 91.90562973 111.72963593 90.54580688 111.73052979 C87.62908917 111.72775857 84.71341264 111.69671238 81.796875 111.6652832 C79.76664284 111.65781739 77.73640345 111.65212606 75.7061615 111.64813232 C70.3778778 111.63290289 65.05003431 111.59364411 59.72192383 111.54931641 C53.32089077 111.50108781 46.91971003 111.4828169 40.51854706 111.45950317 C30.80763201 111.42079167 21.09768175 111.3441187 11.38671875 111.2746582 C11.38671875 129.7546582 11.38671875 148.2346582 11.38671875 167.2746582 C18.44046875 167.23985352 25.49421875 167.20504883 32.76171875 167.16918945 C37.23698747 167.1538564 41.7122237 167.13941418 46.1875 167.12817383 C53.28701525 167.11025765 60.38641414 167.0890884 67.48583984 167.04833984 C73.21113356 167.01568496 78.93630245 166.99779215 84.66168213 166.99002647 C86.84330204 166.984494 89.02491532 166.97369044 91.20648193 166.95746803 C94.26801181 166.93561261 97.32902936 166.93269471 100.390625 166.93408203 C101.28758591 166.9232962 102.18454681 166.91251038 103.10868835 166.90139771 C108.87097617 166.92955372 113.139932 167.83707113 118.38671875 170.2746582 C123.57561531 175.72965203 123.73278235 179.72358066 123.66796875 187.0637207 C123.30744913 191.17965299 122.26540755 193.318167 119.38671875 196.2746582 C114.79700264 199.60220238 110.87862471 200.39647845 105.29670715 200.4151001 C104.26927399 200.42081024 103.24184082 200.42652039 102.18327332 200.43240356 C101.06165298 200.43352142 99.94003265 200.43463928 98.78442383 200.43579102 C97.59860718 200.44075592 96.41279053 200.44572083 95.19104004 200.45083618 C91.94077043 200.46293336 88.69053677 200.47040034 85.44024873 200.47484684 C83.40658623 200.47778272 81.37292932 200.48188856 79.33926964 200.48635101 C72.96780703 200.50002097 66.59635724 200.50968925 60.22488099 200.5135529 C52.88635415 200.51802815 45.54801408 200.53555316 38.209544 200.5645535 C32.52698796 200.58622498 26.84448424 200.59626014 21.16188735 200.59759402 C17.77289399 200.59863844 14.38407632 200.60446789 10.99512672 200.62241364 C7.20860375 200.63951349 3.42253251 200.63758372 -0.36401367 200.63110352 C-2.03126244 200.64492569 -2.03126244 200.64492569 -3.73219299 200.6590271 C-11.46975176 200.61765378 -18.31124946 199.93064029 -24.48828125 194.9621582 C-29.81357802 188.22722405 -30.73490021 181.93261358 -30.74699402 173.53274536 C-30.74925958 172.87989496 -30.75152513 172.22704456 -30.75385934 171.55441082 C-30.76015759 169.38057523 -30.75937268 167.20680265 -30.75854492 165.03295898 C-30.761539 163.46871867 -30.76494211 161.90447909 -30.76872253 160.34024048 C-30.77754093 156.10052046 -30.77989973 151.86082063 -30.78053832 147.62109232 C-30.78125 144.9699867 -30.78338653 142.31888618 -30.78603554 139.66778183 C-30.79528148 130.41255112 -30.79937132 121.15733479 -30.79858398 111.90209961 C-30.79798324 103.28498264 -30.80853634 94.66792828 -30.82432765 86.05082715 C-30.83741675 78.64342077 -30.84276731 71.23603483 -30.84212857 63.82861698 C-30.84187401 59.40854049 -30.8447023 54.98851968 -30.85530663 50.56845474 C-30.8650108 46.41026502 -30.86505092 42.25218395 -30.85778999 38.09399033 C-30.85674707 36.57186473 -30.85908965 35.04973229 -30.86515045 33.52761841 C-30.93669171 14.30916488 -30.93669171 14.30916488 -25.61328125 7.2746582 C-18.24330321 -0.09531984 -9.93682181 -0.02317923 0 0 Z " fill="#000000" transform="translate(577.61328125,13.725341796875)"/>
<path d="M0 0 C2.49121652 2.18310226 4.8688042 4.43179627 7.21484375 6.76953125 C7.85035156 7.38183594 8.48585938 7.99414062 9.140625 8.625 C17.65238552 17.47647602 22.48365718 29.28776702 23.52734375 41.39453125 C22.90425233 48.12391861 20.23758822 52.37462984 15.21484375 56.76953125 C9.78298416 60.39077097 4.66136894 59.92426826 -1.4765625 58.73046875 C-8.26347639 55.90545891 -11.30876783 50.75944794 -14.66015625 44.58203125 C-21.94928992 31.7576433 -29.46201227 21.48001108 -43.84765625 16.33203125 C-58.37916687 12.37822801 -72.79790822 14.2370638 -86.03515625 21.39453125 C-100.17528155 30.60738436 -106.38944508 45.26888007 -110.05859375 61.078125 C-114.3113747 82.68499597 -113.89530978 107.80845889 -103.78515625 127.76953125 C-103.34300781 128.65253906 -102.90085937 129.53554687 -102.4453125 130.4453125 C-96.08629878 142.05359516 -86.79398369 147.67954696 -74.55078125 151.87890625 C-61.58177489 154.9462646 -46.68152123 153.73289872 -35.01953125 147.2265625 C-23.40275774 139.62696666 -17.51545488 129.37575628 -12.84765625 116.51953125 C-10.88188742 111.40688039 -7.87918476 107.40761227 -3.78515625 103.76953125 C1.56889962 101.98484596 8.01124569 101.72438578 13.41796875 103.48828125 C18.25836885 106.09788826 21.48447514 109.57842542 23.21484375 114.76953125 C24.63030082 131.98705827 18.85192515 146.36127699 7.96484375 159.45703125 C-5.51487563 175.03515865 -23.47664439 183.79800407 -43.78515625 186.76953125 C-70.31375739 188.23257977 -97.18443938 187.12151207 -118.78515625 169.76953125 C-119.61660156 169.10179687 -120.44804688 168.4340625 -121.3046875 167.74609375 C-142.07071395 150.07423714 -152.54348921 123.45742095 -154.78515625 96.76953125 C-156.66098261 63.79848479 -150.67086838 33.65495249 -128.48046875 8.1171875 C-96.10783371 -26.32517339 -36.51151305 -29.23993541 0 0 Z " fill="#000000" transform="translate(1156.78515625,30.23046875)"/>
<path d="M0 0 C1.35587341 -0.00435256 2.71174436 -0.00953752 4.06761169 -0.01548767 C7.73506781 -0.02883105 11.40242058 -0.02946152 15.06989622 -0.02692437 C18.13878788 -0.02585139 21.2076589 -0.03074641 24.27654612 -0.03552979 C31.52080569 -0.04660906 38.76501341 -0.04707143 46.00927734 -0.04101562 C53.46594273 -0.0349778 60.92241933 -0.04728555 68.37905252 -0.06858569 C74.79627853 -0.08623817 81.21344465 -0.09219728 87.63069403 -0.08894795 C91.45669227 -0.0871406 95.28255585 -0.08971609 99.10853195 -0.10366249 C102.70867458 -0.11629564 106.30852434 -0.1142454 109.9086628 -0.1012516 C111.84752806 -0.09778229 113.7864025 -0.10902352 115.72523499 -0.12081909 C123.87044331 -0.07206341 130.90911934 0.45650194 137.52587891 5.5246582 C140.93463619 10.06966792 141.83927009 14.2457768 141.46337891 19.8371582 C140.80720969 24.17229864 139.58539678 26.97025388 136.58837891 30.2746582 C130.26810514 34.82540362 123.97552856 34.80735782 116.43212891 34.6652832 C115.28925415 34.65962341 114.14637939 34.65396362 112.96887207 34.64813232 C109.34160338 34.62585668 105.71534581 34.57567446 102.08837891 34.5246582 C99.61964324 34.50458192 97.15089198 34.48633313 94.68212891 34.4699707 C88.65053766 34.42602073 82.61953055 34.35919631 76.58837891 34.2746582 C76.59114429 35.04972938 76.59390966 35.82480055 76.59675884 36.62335873 C76.66308077 55.50333826 76.71268969 74.38329448 76.74381542 93.26336575 C76.7592686 102.39371874 76.78032844 111.52399387 76.81469727 120.65429688 C76.84464713 128.61448265 76.86396517 136.57461201 76.87064439 144.53485256 C76.8745472 148.74774192 76.8836869 152.9604699 76.90556908 157.17330742 C76.9260226 161.14348791 76.93219491 165.11344148 76.92770195 169.08366966 C76.9285232 170.53604111 76.93443593 171.98842063 76.94599533 173.44074631 C77.07879771 190.99608032 77.07879771 190.99608032 71.65087891 197.6496582 C70.97025391 198.1859082 70.28962891 198.7221582 69.58837891 199.2746582 C68.90775391 199.8315332 68.22712891 200.3884082 67.52587891 200.9621582 C62.27283036 204.52067496 55.66014136 203.67194636 49.58837891 203.2746582 C44.25920474 201.62745892 40.4907568 197.99539333 37.58837891 193.2746582 C36.04335881 188.60988773 35.33975642 184.56694959 35.34786987 179.66236877 C35.34512054 178.37379471 35.34237122 177.08522064 35.33953857 175.75759888 C35.34661504 174.34735012 35.35388463 172.93710233 35.36132812 171.52685547 C35.36189282 170.02830513 35.36157454 168.52975424 35.36044312 167.03120422 C35.35987088 162.9779801 35.37160415 158.92487511 35.38559103 154.87167859 C35.39812004 150.63027381 35.3992706 146.38886611 35.40164185 142.14744568 C35.40785024 134.12239436 35.42425238 126.09739774 35.44434083 118.07237047 C35.46671977 108.93333288 35.47769827 99.79429264 35.4877317 90.65523446 C35.50861918 71.86167807 35.54378269 53.06817254 35.58837891 34.2746582 C34.6378363 34.28798187 34.6378363 34.28798187 33.66809082 34.30157471 C27.04916438 34.3903388 20.43040814 34.45051299 13.81103516 34.49438477 C11.34351733 34.51445115 8.87604676 34.54171065 6.40869141 34.57641602 C2.85388497 34.62515127 -0.70029054 34.64767759 -4.25537109 34.6652832 C-5.89959045 34.69625092 -5.89959045 34.69625092 -7.57702637 34.72784424 C-13.9916827 34.72970687 -19.13412766 34.16256932 -24.41162109 30.2746582 C-28.66911152 25.16566969 -29.03219916 20.65724572 -28.80224609 14.0871582 C-28.14113495 9.32715794 -25.95225928 6.76217094 -22.59912109 3.5246582 C-15.50577916 -0.52868004 -7.93951132 -0.01560517 0 0 Z " fill="#000000" transform="translate(743.41162109375,13.725341796875)"/>
<path d="M0 0 C5.08053184 2.84286813 7.66711623 5.53182435 9.9375 10.9375 C11.68706244 20.79867013 8.76234766 29.15469621 5 38.1875 C4.24875488 40.04418757 3.49751435 41.90087701 2.74642944 43.75762939 C1.93863029 45.74662698 1.12367316 47.7325522 0.30664062 49.71777344 C-1.38013401 53.81811044 -3.04374459 57.92757654 -4.703125 62.0390625 C-7.15627744 68.11255604 -9.61841274 74.1823323 -12.0859375 80.25 C-16.12608316 90.18789228 -20.14386804 100.13476453 -24.15844727 110.08300781 C-25.9640241 114.5572091 -27.77189103 119.03047391 -29.58178711 123.50292969 C-33.33790893 132.78795177 -37.09224447 142.07305275 -40.77536011 151.3873291 C-42.13420224 154.82220276 -43.50126786 158.25377296 -44.86914062 161.68505859 C-45.48831151 163.24548459 -46.1032041 164.80761637 -46.71337891 166.37158203 C-54.55917489 186.47781244 -54.55917489 186.47781244 -64.375 191.8125 C-70.69034346 194.25714908 -76.99117466 192.77823898 -83 190.22265625 C-87.7827884 187.38287564 -90.64043986 183.01618041 -92.375 177.8125 C-94.35288159 163.68477433 -85.74484474 148.48169474 -80.45050049 135.73989868 C-78.4409949 130.90172701 -76.44949403 126.05614718 -74.45703125 121.2109375 C-74.03995911 120.19749771 -73.62288696 119.18405792 -73.19317627 118.13990784 C-68.97259842 107.86701165 -64.85121152 97.55525425 -60.74081421 87.23788452 C-58.24641668 80.98008106 -55.74265317 74.72601925 -53.23954773 68.47169495 C-51.03695717 62.96814095 -48.83667237 57.46368808 -46.640625 51.95751953 C-44.37529025 46.28123847 -42.09690922 40.61033888 -39.80999756 34.94271851 C-38.94590336 32.79552716 -38.08598496 30.64664998 -37.23052979 28.4960022 C-36.04242962 25.51094241 -34.83943465 22.53229952 -33.6328125 19.5546875 C-33.11835571 18.2471627 -33.11835571 18.2471627 -32.59350586 16.91322327 C-29.45058814 9.23814552 -25.5326108 1.81705743 -17.5703125 -1.55859375 C-11.21763662 -3.37848844 -5.96538255 -2.77214836 0 0 Z " fill="#0075C9" transform="translate(966.375,24.1875)"/>
<path d="M0 0 C5.06329988 2.80232949 8.57276463 6.23136681 10.2890625 11.9375 C12.822246 24.65308776 5.84667276 37.40110187 1.03460693 48.86880493 C-0.73176414 53.08199975 -2.47534901 57.30460269 -4.21875 61.52734375 C-4.60854034 62.47103317 -4.99833069 63.4147226 -5.39993286 64.38700867 C-10.60985135 77.03758343 -15.65932373 89.75289753 -20.72686768 102.46096802 C-36.51435701 142.05029151 -36.51435701 142.05029151 -42.71429443 157.17953491 C-43.26586705 158.52592061 -43.81595686 159.87291505 -44.36431885 161.22061157 C-54.72564837 186.65773754 -54.72564837 186.65773754 -64.75 192.3125 C-72.79263454 194.27411818 -79.12467921 192.41212138 -86.0625 188.3125 C-90.19811032 183.94713355 -92.02358556 179.10435832 -92.8125 173.1875 C-92.0979211 161.49477737 -85.90554357 149.68633242 -81.46343994 139.01577759 C-79.43916026 134.15131231 -77.43528259 129.27844178 -75.4296875 124.40625 C-75.00952362 123.38662674 -74.58935974 122.36700348 -74.15646362 121.31648254 C-69.92341202 111.02708374 -65.79422387 100.6970589 -61.67703247 90.36087036 C-54.72482854 72.91283599 -47.74820559 55.47420363 -40.69256592 38.06771851 C-39.82322447 35.91989704 -38.9565082 33.77101092 -38.09259033 31.6210022 C-36.89316144 28.63758362 -35.68413907 25.65822796 -34.47265625 22.6796875 C-33.95045753 21.3721627 -33.95045753 21.3721627 -33.41770935 20.03822327 C-30.64626997 13.27182435 -27.50385912 6.18761363 -21.6875 1.5 C-20.83285156 0.79037109 -20.83285156 0.79037109 -19.9609375 0.06640625 C-14.05037452 -3.98134897 -6.14887683 -2.80749616 0 0 Z " fill="#0075C9" transform="translate(293.3125,22.0625)"/>
<path d="M0 0 C2.5 2.0625 2.5 2.0625 4.5 4.0625 C4.96148437 3.64097656 5.42296875 3.21945312 5.8984375 2.78515625 C11.2392178 -1.700677 15.51793342 -3.23412374 22.5 -2.9375 C28.06826118 -2.0246703 31.0158154 -0.38951365 34.5 4.0625 C38.07648943 11.09482621 37.92823528 18.06470051 37.83618164 25.80078125 C37.81232269 27.95349815 37.81566938 30.10499459 37.82226562 32.2578125 C37.77947145 42.78302855 37.77947145 42.78302855 35.5 45.0625 C30.94444444 44.50694444 30.94444444 44.50694444 29.5 43.0625 C29.36555812 40.91540084 29.2963213 38.7641672 29.25390625 36.61328125 C29.22093983 35.27668685 29.1877287 33.94009847 29.15429688 32.60351562 C29.10708037 30.49491953 29.06271257 28.38634275 29.02319336 26.27758789 C28.98317533 24.24337821 28.93167608 22.20969471 28.87890625 20.17578125 C28.8538501 18.95673096 28.82879395 17.73768066 28.80297852 16.48168945 C28.49648547 13.02283763 27.83562664 10.26205459 26.5 7.0625 C23.15100826 5.09130119 19.26277848 4.76252431 15.45703125 5.41015625 C12.20817842 6.56699724 10.63605556 7.84253256 8.83227539 10.75878906 C7.37110265 14.38213331 7.10334057 17.02809744 7.05859375 20.921875 C7.03216797 22.20191406 7.00574219 23.48195313 6.97851562 24.80078125 C6.96362118 26.13800777 6.94996289 27.4752486 6.9375 28.8125 C6.90618597 31.45363302 6.86066442 34.09345723 6.80859375 36.734375 C6.79626709 37.9006543 6.78394043 39.06693359 6.77124023 40.26855469 C6.5 43.0625 6.5 43.0625 4.5 45.0625 C-0.05555556 44.50694444 -0.05555556 44.50694444 -1.5 43.0625 C-1.62224144 40.83036369 -1.67982079 38.59463947 -1.7109375 36.359375 C-1.73902145 34.97264476 -1.767686 33.58592617 -1.796875 32.19921875 C-1.83803737 30.00928258 -1.87491472 27.81956047 -1.90136719 25.62939453 C-1.92909086 23.51809364 -1.97497665 21.40778845 -2.0234375 19.296875 C-2.04325684 18.03069336 -2.06307617 16.76451172 -2.08349609 15.45996094 C-2.52850036 11.83001989 -3.26097998 9.92807975 -5.5 7.0625 C-9.74726764 5.10222263 -11.74312603 4.83543781 -16.25 6.1875 C-20.49622549 8.63724548 -21.96951679 10.47105038 -23.5 15.0625 C-23.65109093 17.27209253 -23.74873801 19.48550047 -23.81640625 21.69921875 C-23.85830078 22.99794922 -23.90019531 24.29667969 -23.94335938 25.63476562 C-23.98316987 27.00650761 -24.02288216 28.37825244 -24.0625 29.75 C-24.10570835 31.13347645 -24.14932339 32.51694027 -24.19335938 33.90039062 C-24.29958028 37.28765719 -24.40162358 40.67499799 -24.5 44.0625 C-27.47 44.5575 -27.47 44.5575 -30.5 45.0625 C-32.52937312 42.01844032 -32.75115773 41.42372909 -32.75878906 38.00585938 C-32.76509338 37.19491821 -32.77139771 36.38397705 -32.77789307 35.54846191 C-32.7738446 34.67653198 -32.76979614 33.80460205 -32.765625 32.90625 C-32.76753845 32.00757202 -32.7694519 31.10889404 -32.77142334 30.1829834 C-32.7727841 28.28328166 -32.76909527 26.38357058 -32.76074219 24.48388672 C-32.75004111 21.57368105 -32.76064114 18.66409269 -32.7734375 15.75390625 C-32.77211589 13.9088528 -32.76955345 12.06379974 -32.765625 10.21875 C-32.76967346 9.34682007 -32.77372192 8.47489014 -32.77789307 7.57653809 C-32.77158875 6.76559692 -32.76528442 5.95465576 -32.75878906 5.11914062 C-32.75719788 4.40649048 -32.75560669 3.69384033 -32.75396729 2.95959473 C-32.5 1.0625 -32.5 1.0625 -30.5 -1.9375 C-27.875 -2.125 -27.875 -2.125 -25.5 -1.9375 C-24.84 -0.2875 -24.18 1.3625 -23.5 3.0625 C-22.13875 1.8559375 -22.13875 1.8559375 -20.75 0.625 C-15.12509819 -4.36070842 -6.19415265 -4.08875101 0 0 Z " fill="#0075C9" transform="translate(279.5,280.9375)"/>
<path d="M0 0 C1.875 1.6875 1.875 1.6875 3 3 C3.66 1.02 4.32 -0.96 5 -3 C7.375 -3.1875 7.375 -3.1875 10 -3 C12.46685316 0.70027974 12.28902517 3.53571757 12.265625 7.81640625 C12.26849518 8.97305031 12.26849518 8.97305031 12.27142334 10.15306091 C12.27278454 11.78799769 12.26909261 13.4229453 12.26074219 15.05786133 C12.2501434 17.52906467 12.26058608 19.99952395 12.2734375 22.47070312 C12.29480141 44.38397491 12.29480141 44.38397491 6.53125 51.54443359 C1.27968348 56.53643608 -4.87163066 57.66967855 -11.875 57.5 C-12.66003906 57.49081543 -13.44507813 57.48163086 -14.25390625 57.47216797 C-21.21135792 57.25510698 -27.91272823 56.08727177 -33 51 C-32.625 48.375 -32.625 48.375 -32 46 C-29 45 -29 45 -27.125 45.7421875 C-26.42375 46.11601562 -25.7225 46.48984375 -25 46.875 C-19.28909122 49.5444313 -13.10627265 50.97803949 -6.8515625 49.48828125 C-2.49819236 47.75244379 0.07571167 45.7999299 2.1875 41.6875 C3.0992952 38.67156204 3.145757 36.1337755 3 33 C2.13375 33.78375 1.2675 34.5675 0.375 35.375 C-4.49851448 39.38514129 -9.40647671 40.48678855 -15.6328125 40.30859375 C-21.60620213 39.52988454 -26.38177503 37.06464068 -30.4375 32.625 C-35.02223131 26.61785897 -35.89076192 20.39332395 -35 13 C-33.25644235 6.739043 -30.55446775 2.56324346 -25 -1 C-16.67275492 -5.09169816 -7.95042271 -5.04173147 0 0 Z M-23.875 8.5 C-26.9468598 12.11395271 -27.36455487 15.17565023 -27.26953125 19.875 C-26.70132552 24.35476692 -24.81850219 27.54184617 -21.3046875 30.359375 C-16.71573887 33.07187095 -12.64028295 33.52895985 -7.40234375 32.74609375 C-2.70049702 31.28584542 0.66800713 28.23935714 3.1640625 24.04296875 C4.5219174 20.72447288 4.53865392 17.48778412 4 14 C1.59112355 9.18224709 -1.23088817 6.4762696 -6 4 C-13.08869756 1.89215918 -18.27810089 3.63313121 -23.875 8.5 Z " fill="#0075C9" transform="translate(544,282)"/>
<path d="M0 0 C5.64524974 4.61050559 8.06349413 10.51475975 8.97265625 17.640625 C9.24715494 24.77759085 7.41655886 30.75079569 3.49609375 36.6875 C-1.87961034 41.82428391 -6.33253872 43.6170103 -13.81640625 43.9375 C-20.25774421 43.75774173 -24.75653997 41.93486628 -29.31640625 37.375 C-29.36539063 38.65117187 -29.414375 39.92734375 -29.46484375 41.2421875 C-29.53986816 42.91148072 -29.61541613 44.58075046 -29.69140625 46.25 C-29.7378125 47.51263672 -29.7378125 47.51263672 -29.78515625 48.80078125 C-29.84316406 50.00927734 -29.84316406 50.00927734 -29.90234375 51.2421875 C-29.93376465 51.98581543 -29.96518555 52.72944336 -29.99755859 53.49560547 C-30.31640625 55.375 -30.31640625 55.375 -32.31640625 57.375 C-36.87196181 56.81944444 -36.87196181 56.81944444 -38.31640625 55.375 C-38.42057418 53.60599965 -38.45494445 51.83284292 -38.46166992 50.06079102 C-38.46804977 48.92613907 -38.47442963 47.79148712 -38.48100281 46.62245178 C-38.48211563 45.38708176 -38.48322845 44.15171173 -38.484375 42.87890625 C-38.4877034 41.61988998 -38.4910318 40.36087372 -38.49446106 39.06370544 C-38.49953568 36.39456665 -38.50230039 33.72552959 -38.50170898 31.05639648 C-38.50160735 27.63187285 -38.51525826 24.20755649 -38.53248119 20.78308201 C-38.54625741 17.52336436 -38.54568951 14.26364908 -38.546875 11.00390625 C-38.55406052 9.77056046 -38.56124603 8.53721466 -38.56864929 7.26649475 C-38.56557266 6.12869064 -38.56249603 4.99088654 -38.55932617 3.81860352 C-38.5614637 2.31089134 -38.5614637 2.31089134 -38.56364441 0.77272034 C-38.31640625 -1.625 -38.31640625 -1.625 -36.31640625 -3.625 C-33.69140625 -3.75 -33.69140625 -3.75 -31.31640625 -3.625 C-30.65640625 -1.645 -29.99640625 0.335 -29.31640625 2.375 C-28.47078125 1.59125 -27.62515625 0.8075 -26.75390625 0 C-18.67688044 -6.62730323 -8.24248864 -5.83773843 0 0 Z M-26.12890625 7.8125 C-30.11627399 12.48341649 -30.71326658 15.87062443 -30.5625 21.91015625 C-30.06069364 26.93618506 -27.97966324 29.98098054 -24.25390625 33.1875 C-19.50754611 36.72202351 -16.12556922 36.92055617 -10.31640625 36.375 C-5.72300943 34.49588312 -3.19754894 31.29655532 -0.31640625 27.375 C1.66795831 22.64305373 1.05629479 17.51271895 -0.50390625 12.75 C-2.79097104 8.49132764 -4.79398272 5.41336608 -9.39453125 3.51953125 C-16.30344256 1.58080614 -20.67324325 3.08425874 -26.12890625 7.8125 Z " fill="#0075C9" transform="translate(799.31640625,282.625)"/>
<path d="M0 0 C5.95473171 4.10214851 9.95816626 8.89806244 11.8125 15.9375 C12.86068935 24.63195481 11.95167115 31.72651639 6.8125 38.9375 C2.99771193 43.17171504 -1.40323616 45.64895583 -7.08984375 46.23828125 C-15.34271854 46.27014563 -19.52353722 44.93547208 -26.1875 39.9375 C-26.5175 46.2075 -26.8475 52.4775 -27.1875 58.9375 C-32.1875 59.9375 -32.1875 59.9375 -34.1875 58.9375 C-34.21062821 51.26213373 -34.22841753 43.58677104 -34.23931217 35.91137791 C-34.24453995 32.34772578 -34.25163569 28.78409743 -34.26293945 25.22045898 C-34.27584176 21.12743903 -34.28072906 17.0344442 -34.28515625 12.94140625 C-34.29031754 11.65601456 -34.29547882 10.37062286 -34.30079651 9.04627991 C-34.30087204 7.86513107 -34.30094757 6.68398224 -34.30102539 5.46704102 C-34.303246 4.42113297 -34.30546661 3.37522491 -34.30775452 2.29762268 C-34.1875 -0.0625 -34.1875 -0.0625 -33.1875 -1.0625 C-31.52132885 -1.10313832 -29.85361905 -1.105221 -28.1875 -1.0625 C-27.5275 1.2475 -26.8675 3.5575 -26.1875 5.9375 C-25.5275 5.174375 -24.8675 4.41125 -24.1875 3.625 C-17.26272676 -3.1833905 -8.77365137 -2.92455046 0 0 Z M-22.76953125 10.40234375 C-25.11375878 13.05733343 -26.86451809 15.38469896 -27.1875 18.9375 C-27.290625 20.01 -27.39375 21.0825 -27.5 22.1875 C-27.0050479 28.12692522 -24.92789573 32.32141825 -20.5625 36.375 C-16.06008031 39.33711822 -12.50578193 39.54779465 -7.1875 38.9375 C-2.87445849 37.5445722 -0.56182498 35.40780574 2.25 31.875 C4.60987423 27.0936896 4.67617615 22.12700237 3.8125 16.9375 C2.13603223 12.75320135 -0.08148194 9.83977789 -3.5625 7 C-11.15372574 3.92736101 -16.78921272 4.86501178 -22.76953125 10.40234375 Z " fill="#0075C9" transform="translate(630.1875,280.0625)"/>
<path d="M0 0 C5.67936207 4.05336884 8.11716448 9.0676009 9.5625 15.8125 C9.86758475 21.20233051 9.86758475 21.20233051 8.5625 23.8125 C-2.9875 23.8125 -14.5375 23.8125 -26.4375 23.8125 C-22.93226028 32.68266529 -22.93226028 32.68266529 -16.4375 36.8125 C-10.91277311 38.57036765 -6.57928159 37.03570842 -1.4375 34.8125 C-0.4475 34.1525 0.5425 33.4925 1.5625 32.8125 C4.25 32.6875 4.25 32.6875 6.5625 32.8125 C7.375 34.5 7.375 34.5 7.5625 36.8125 C3.63049559 41.6977176 -0.73257919 44.42479468 -6.953125 45.31640625 C-15.64996952 45.45286302 -21.75355527 44.64260748 -28.4375 38.8125 C-33.32835088 33.06575022 -34.89832779 26.56789644 -34.68359375 19.140625 C-33.91135725 11.83502258 -31.19608122 5.51412644 -25.4375 0.8125 C-17.33218626 -4.12178749 -8.35437739 -4.77392994 0 0 Z M-23.75 10.25 C-25.80461373 13.02081686 -25.80461373 13.02081686 -26.4375 17.8125 C-17.1975 17.8125 -7.9575 17.8125 1.5625 17.8125 C-0.62252464 9.27079008 -0.62252464 9.27079008 -6.4375 4.8125 C-14.1651975 2.64131697 -18.22724425 4.42871691 -23.75 10.25 Z " fill="#0075C9" transform="translate(873.4375,281.1875)"/>
<path d="M0 0 C4.68398824 4.81409903 7.16458501 10.14856922 7.25 16.875 C7.16955017 20.83044983 7.16955017 20.83044983 6 22 C3.47905924 22.08847743 0.98569107 22.11527301 -1.53515625 22.09765625 C-2.66503212 22.09553383 -2.66503212 22.09553383 -3.81773376 22.09336853 C-6.2326956 22.08775376 -8.64756601 22.07519883 -11.0625 22.0625 C-12.69596221 22.0574869 -14.32942586 22.05292366 -15.96289062 22.04882812 C-19.97529585 22.03777954 -23.98763241 22.02050506 -28 22 C-27.56662809 23.27534622 -27.12162209 24.54674222 -26.671875 25.81640625 C-26.4253418 26.52482666 -26.17880859 27.23324707 -25.92480469 27.96313477 C-24.30648102 31.52746273 -22.3105946 32.89904574 -19 35 C-13.14965853 36.76614082 -8.4120945 35.50212923 -3 33 C-2.34 32.34 -1.68 31.68 -1 31 C1.625 30.875 1.625 30.875 4 31 C4.495 33.475 4.495 33.475 5 36 C-2.03438909 42.21643687 -7.06405262 43.47711453 -16.55078125 43.30859375 C-23.0917289 42.72339005 -27.00062765 40.35547257 -31.375 35.5625 C-37.13044452 28.63345925 -36.73602182 20.55057447 -36 12 C-34.1804288 5.49872127 -29.97287694 1.08101386 -24.5 -2.75 C-16.32010589 -6.83994705 -7.22546721 -5.20233639 0 0 Z M-25.3125 7.3125 C-27.45215326 10.33687205 -27.45215326 10.33687205 -28 16 C-19.09 16 -10.18 16 -1 16 C-2.02740867 9.835548 -2.8113988 8.28601053 -7 4 C-13.31948908 -0.4847987 -20.27049455 2.27049455 -25.3125 7.3125 Z " fill="#0075C9" transform="translate(687,283)"/>
<path d="M0 0 C4.74900441 3.6370931 7.94857068 8.72386093 9.78515625 14.3671875 C10.62152664 21.9625977 10.66044898 29.17461512 5.78515625 35.3671875 C0.98745392 40.41529184 -3.38121761 43.97329043 -10.484375 44.703125 C-18.77050884 44.79448259 -24.65833587 44.48577014 -30.921875 38.82421875 C-35.75840539 33.6817278 -38.26728149 28.04752172 -38.65234375 20.9921875 C-38.33799274 13.69924405 -35.84787712 7.47410537 -30.52734375 2.4296875 C-21.48751416 -4.62538246 -10.15198939 -5.71179691 0 0 Z M-24.94921875 7.98828125 C-28.71386796 12.15628573 -29.98860296 15.01428324 -30.52734375 20.6171875 C-30.03239165 26.55661272 -27.95523948 30.75110575 -23.58984375 34.8046875 C-18.85982663 37.91654087 -14.79717711 37.98553827 -9.21484375 37.3671875 C-4.22815368 34.87384247 -0.71808901 31.37367801 1.78515625 26.3671875 C2.57483732 19.66617955 2.24736152 14.48647766 -1.80078125 8.95703125 C-5.29398249 5.02959228 -8.93821435 3.76469681 -14.16796875 3.3125 C-18.53490623 3.4291739 -21.78685967 5.03247265 -24.94921875 7.98828125 Z " fill="#0075C9" transform="translate(740.21484375,281.6328125)"/>
<path d="M0 0 C5.32936127 4.55038155 8.57103061 9.39088253 9.40625 16.41796875 C9.61788184 24.92733245 8.99399594 31.45077075 3 38 C-4.71486249 44.26196937 -12.27468363 44.75557397 -22 44 C-28.20431637 42.38317658 -32.54107859 38.29853884 -36 33 C-39.31623158 26.41296466 -39.16121242 17.5335958 -37.34765625 10.453125 C-34.78315889 4.77380896 -30.41014134 0.59944682 -24.79296875 -2.03515625 C-15.96206882 -5.26964259 -8.30341741 -4.37727878 0 0 Z M-27.375 9.125 C-30.03058529 13.82334321 -31.52745602 18.8352639 -30.625 24.25 C-28.8828067 29.47657991 -25.92598227 33.28310131 -21.109375 36.109375 C-16.90886567 37.88292338 -12.31321626 37.75450609 -8 36.34765625 C-3.3386851 34.00695286 -0.87974067 30.81620042 1 26 C2.59202666 20.16256891 1.66022077 16.24317371 -1 11 C-3.88412084 6.36480579 -6.8474754 4.7175082 -12 3 C-17.85628726 1.94887152 -23.14597846 5.34113862 -27.375 9.125 Z " fill="#0075C9" transform="translate(366,282)"/>
<path d="M0 0 C4.15750818 3.76155502 6.78330192 7.75383923 7.07910156 13.38256836 C7.07847839 14.82681502 7.05648402 16.27117504 7.015625 17.71484375 C7.00996521 18.48180069 7.00430542 19.24875763 6.99847412 20.03895569 C6.97626494 22.46413314 6.92610262 24.88777694 6.875 27.3125 C6.8549148 28.96677538 6.83666758 30.62107416 6.8203125 32.27539062 C6.77645159 36.30917548 6.70753637 40.34182866 6.625 44.375 C1.875 45.5 1.875 45.5 -0.375 44.375 C-0.3843457 43.53839844 -0.39369141 42.70179688 -0.40332031 41.83984375 C-0.4476418 38.70083985 -0.50939195 35.56277132 -0.58251953 32.42431641 C-0.62423272 30.4120146 -0.64628531 28.39933605 -0.66796875 26.38671875 C-0.85279742 19.03053773 -1.13494254 13.51551179 -5.375 7.375 C-8.8350202 5.49657502 -11.68549537 5.07384053 -15.56640625 5.765625 C-18.95229053 6.83813347 -20.79820922 7.59514896 -22.95751953 10.51464844 C-24.6827213 13.99595465 -24.77358688 16.47941809 -24.81640625 20.35546875 C-24.82961411 21.00953201 -24.84282196 21.66359528 -24.85643005 22.33747864 C-24.89710519 24.41253039 -24.91894635 26.48714127 -24.9375 28.5625 C-24.96129397 30.6484382 -24.98936678 32.73396176 -25.02928162 34.81965637 C-25.06473365 36.70406386 -25.08463204 38.58874479 -25.10375977 40.47338867 C-25.375 43.375 -25.375 43.375 -27.375 45.375 C-31.93055556 44.81944444 -31.93055556 44.81944444 -33.375 43.375 C-33.47295311 41.99890118 -33.50298088 40.61786118 -33.50439453 39.23828125 C-33.50754669 38.36067139 -33.51069885 37.48306152 -33.51394653 36.57885742 C-33.5119223 35.62470947 -33.50989807 34.67056152 -33.5078125 33.6875 C-33.50876923 32.71466064 -33.50972595 31.74182129 -33.51071167 30.73950195 C-33.51139358 28.678222 -33.50953853 26.61693992 -33.50537109 24.55566406 C-33.500023 21.38862312 -33.50531572 18.221724 -33.51171875 15.0546875 C-33.51105797 13.05729135 -33.50977681 11.05989529 -33.5078125 9.0625 C-33.50983673 8.10835205 -33.51186096 7.1542041 -33.51394653 6.17114258 C-33.51079437 5.29353271 -33.50764221 4.41592285 -33.50439453 3.51171875 C-33.50359894 2.73530029 -33.50280334 1.95888184 -33.50198364 1.15893555 C-33.375 -0.625 -33.375 -0.625 -32.375 -1.625 C-30 -1.9375 -30 -1.9375 -27.375 -1.625 C-25.5625 0.375 -25.5625 0.375 -24.375 2.375 C-23.488125 1.735625 -22.60125 1.09625 -21.6875 0.4375 C-14.89889168 -3.78936933 -7.15159119 -3.44335872 0 0 Z " fill="#0075C9" transform="translate(491.375,280.625)"/>
<path d="M0 0 C0.86625 0.12375 1.7325 0.2475 2.625 0.375 C5.21842142 4.04441996 6.84550642 8.06376298 8.54296875 12.20703125 C8.93613029 13.1619471 8.93613029 13.1619471 9.3372345 14.13615417 C10.16609795 16.15174416 10.989377 18.1695599 11.8125 20.1875 C12.37658444 21.56200032 12.94103391 22.9363509 13.50585938 24.31054688 C14.88313224 27.66364311 16.25540937 31.01875741 17.625 34.375 C20.38757615 31.06512102 21.8951776 27.66033556 23.5078125 23.67578125 C23.89741653 22.72230049 23.89741653 22.72230049 24.29489136 21.7495575 C25.11877813 19.73106438 25.93483291 17.70952848 26.75 15.6875 C27.57346 13.65525835 28.39857867 11.62372276 29.22653198 9.5933075 C29.97375458 7.7593709 30.71576274 5.92331231 31.45751953 4.0871582 C32.625 1.375 32.625 1.375 33.625 0.375 C36.125 0.25 36.125 0.25 38.625 0.375 C39.625 1.375 39.625 1.375 39.91552734 3.88574219 C39.53100415 8.50389804 37.90003648 12.02575132 35.9765625 16.203125 C35.60397308 17.03334167 35.23138367 17.86355835 34.84750366 18.71893311 C34.06082521 20.46604302 33.26876914 22.2107403 32.47167969 23.953125 C31.25007923 26.62482673 30.04561461 29.3037456 28.84375 31.984375 C28.07651001 33.68273887 27.30831372 35.38067114 26.5390625 37.078125 C25.99676498 38.28121307 25.99676498 38.28121307 25.44351196 39.50860596 C25.10331024 40.24987732 24.76310852 40.99114868 24.41259766 41.75488281 C24.11503571 42.40741028 23.81747375 43.05993774 23.51089478 43.73223877 C22.625 45.375 22.625 45.375 20.625 47.375 C18.1875 47.75 18.1875 47.75 15.625 47.375 C12.41126959 43.94238968 10.72889892 39.56201574 8.83203125 35.3203125 C8.48113937 34.54114471 8.1302475 33.76197693 7.76872253 32.959198 C7.0306787 31.3146732 6.29540974 29.6689006 5.56274414 28.02197266 C4.44218911 25.51050955 3.30455177 23.00725922 2.16601562 20.50390625 C1.44945756 18.90151672 0.73392819 17.2986667 0.01953125 15.6953125 C-0.32103806 14.95137238 -0.66160736 14.20743225 -1.01249695 13.44094849 C-2.84500823 9.26811122 -3.87791351 6.03041448 -3.375 1.375 C-2.375 0.375 -2.375 0.375 0 0 Z " fill="#0075C9" transform="translate(384.375,278.625)"/>
<path d="M0 0 C1.65 0.33 3.3 0.66 5 1 C5 22.12 5 43.24 5 65 C0 66 0 66 -2 65 C-2.04628728 56.82037612 -2.08185072 48.64080673 -2.10362434 40.46108437 C-2.11407321 36.66313688 -2.12825236 32.86527882 -2.15087891 29.06738281 C-2.17256821 25.40398654 -2.18456031 21.74067643 -2.18975449 18.07722092 C-2.19345731 16.67773456 -2.20068777 15.27825305 -2.21146011 13.87880325 C-2.22592225 11.92266669 -2.22681647 9.96644391 -2.22705078 8.01025391 C-2.231492 6.8955069 -2.23593323 5.78075989 -2.24050903 4.63223267 C-2 2 -2 2 0 0 Z " fill="#0075C9" transform="translate(822,260)"/>
<path d="M0 0 C2.5 0.125 2.5 0.125 3.5 1.125 C3.5928726 2.53725046 3.61746772 3.95408934 3.61352539 5.36938477 C3.61341209 6.72067223 3.61341209 6.72067223 3.61329651 8.09925842 C3.60813522 9.07841721 3.60297394 10.05757599 3.59765625 11.06640625 C3.5962413 12.06381332 3.59482635 13.0612204 3.59336853 14.08885193 C3.58775114 17.28843124 3.57519571 20.48794169 3.5625 23.6875 C3.55748724 25.85091045 3.55292395 28.01432199 3.54882812 30.17773438 C3.53777607 35.49351325 3.52102104 40.80925171 3.5 46.125 C-1.25 47.25 -1.25 47.25 -3.5 46.125 C-3.52527062 39.73462769 -3.54283317 33.34426817 -3.55493164 26.95385742 C-3.55997308 24.77807127 -3.56680607 22.60228853 -3.57543945 20.42651367 C-3.58751338 17.30646933 -3.59323005 14.18646962 -3.59765625 11.06640625 C-3.60281754 10.08724747 -3.60797882 9.10808868 -3.61329651 8.09925842 C-3.61337204 7.19840012 -3.61344757 6.29754181 -3.61352539 5.36938477 C-3.615746 4.57218521 -3.61796661 3.77498566 -3.62025452 2.95362854 C-3.43003744 0.061127 -2.90204197 0.1451021 0 0 Z " fill="#0075C9" transform="translate(439.5,278.875)"/>
<path d="M0 0 C2.33294775 -0.04241723 4.66702567 -0.04092937 7 0 C8 1 8 1 8.1875 3.9375 C8 7 8 7 6 9 C3.5 9.25 3.5 9.25 1 9 C0.34 8.34 -0.32 7.68 -1 7 C-0.625 3.375 -0.625 3.375 0 0 Z " fill="#0075C9" transform="translate(436,262)"/>
</svg>
